<?xml version="1.0" encoding="UTF-8" standalone="no"?>
<svg
   viewBox="0 0 1247.2038 415.85001"
   version="1.1"
   id="svg124"
   sodipodi:docname="logo.svg"
   width="1247.2039"
   height="415.85001"
   inkscape:version="1.4.3 (0d15f75042, 2025-12-25)"
   xmlns:inkscape="http://www.inkscape.org/namespaces/inkscape"
   xmlns:sodipodi="http://sodipodi.sourceforge.net/DTD/sodipodi-0.dtd"
   xmlns="http://www.w3.org/2000/svg"
   xmlns:svg="http://www.w3.org/2000/svg">
  <sodipodi:namedview
     id="namedview124"
     pagecolor="#ffffff"
     bordercolor="#000000"
     borderopacity="0.25"
     inkscape:showpageshadow="2"
     inkscape:pageopacity="0.0"
     inkscape:pagecheckerboard="0"
     inkscape:deskcolor="#d1d1d1"
     inkscape:zoom="1.3874376"
     inkscape:cx="1275.0123"
     inkscape:cy="328.30305"
     inkscape:window-width="5120"
     inkscape:window-height="1406"
     inkscape:window-x="0"
     inkscape:window-y="0"
     inkscape:window-maximized="1"
     inkscape:current-layer="svg124" />
  <defs
     id="defs1">
    <style
       id="style1">
      .cls-1 {
        stroke-linecap: round;
      }

      .cls-1, .cls-2, .cls-3, .cls-4, .cls-5, .cls-6, .cls-7, .cls-8 {
        stroke-miterlimit: 10;
      }

      .cls-1, .cls-2, .cls-3, .cls-5, .cls-7 {
        stroke: #000;
      }

      .cls-1, .cls-2, .cls-7 {
        stroke-width: 3px;
      }

      .cls-1, .cls-5, .cls-7, .cls-8 {
        fill: none;
      }

      .cls-9, .cls-3, .cls-10 {
        fill: #fff;
      }

      .cls-10 {
        font-family: BPtypewrite, BPtypewrite;
        font-size: 24px;
      }

      .cls-4, .cls-6, .cls-8 {
        stroke: #fff;
      }

      .cls-5, .cls-8 {
        stroke-width: 30px;
      }

      .cls-6 {
        stroke-width: .5px;
      }
    </style>
  </defs>
  <g
     id="Black"
     transform="translate(-160.63,-83.610001)">
    <g
       id="Layer_10">
      <rect
         class="cls-2"
         x="162.13"
         y="85.110001"
         width="412.85001"
         height="412.85001"
         id="rect1" />
    </g>
    <g
       id="Layer_1">
      <path
         class="cls-3"
         d="m 340.85,220.34 v 176.13 c 8.63,3.6 17.71,5.53 27.07,5.53 9.82,0 19.33,-2.11 28.34,-6.06 v -175.6 z"
         id="path1" />
      <g
         id="Layer_3">
        <g
           id="g5173">
          <polygon
             class="cls-6"
             points="499.38,404.9 396.26,359.6 396.26,342.4 499.33,404.86 "
             id="polygon1" />
          <polygon
             class="cls-6"
             points="340.85,308.82 340.85,335.25 324.11,327.9 313.33,323.16 209.91,277.72 534.05,277.72 396.26,289.69 376.34,291.42 346.6,294.01 340.85,294.51 320.19,296.3 "
             id="polygon2" />
        </g>
        <path
           id="path5108"
           class="cls-6"
           d="M 270.75,194.04 346.64,424.17 309.96,267.4 499.47,404.95 270.76,194.04 Z" />
      </g>
      <g
         id="FACES"
         style="display:none">
        <g
           id="HAPPY">
          <ellipse
             class="cls-7"
             cx="357.84"
             cy="242.77"
             rx="4.29"
             ry="9.1000004"
             id="ellipse2" />
          <path
             class="cls-1"
             d="m 355.72,259.41 c -0.03,0.52 -0.22,4.39 2.81,7.15 2.25,2.05 4.88,2.22 5.63,2.24 h 10.06 c 0.75,-0.02 3.38,-0.2 5.63,-2.24 3.03,-2.76 2.84,-6.63 2.81,-7.15"
             id="path2" />
          <path
             d="m 349.47,232.54 c -0.17,-2.82 2.22,-5.28 4.88,-5.94 1.38,-0.33 2.79,-0.25 4.06,0.12 1.27,0.4 2.4,1.08 3.31,2.05 -0.68,0.13 -1.29,0.14 -1.89,0.17 -4.07,0.2 -6.9,0.68 -10.37,3.6 v 0 z"
             id="path3" />
          <ellipse
             class="cls-7"
             cx="380.54001"
             cy="242.77"
             rx="4.29"
             ry="9.1000004"
             id="ellipse3" />
          <path
             d="m 388.91,232.54 c -3.47,-2.92 -6.29,-3.4 -10.37,-3.6 -0.6,-0.02 -1.21,-0.04 -1.89,-0.17 0.91,-0.97 2.04,-1.65 3.31,-2.05 1.27,-0.37 2.68,-0.46 4.06,-0.12 2.66,0.66 5.05,3.12 4.88,5.94 v 0 z"
             id="path4" />
        </g>
      </g>
      <path
         class="cls-5"
         d="m 252.35,308.12 c -4.37,-62.32 42.5,-116.92 104.71,-121.98 64.06,-5.21 120.22,43.07 124.74,107.24 4.39,62.31 -42.46,116.92 -104.66,122.01 -64.08,5.24 -120.29,-43.07 -124.79,-107.26 z"
         id="path5" />
      <text
         class="cls-10"
         transform="rotate(-90.26,283.37323,24.309379)"
         id="text5"><tspan
           x="0"
           y="0"
           id="tspan5">V</tspan></text>
      <text
         class="cls-10"
         transform="rotate(-82.74,296.99445,-0.79372523)"
         id="text6"><tspan
           x="0"
           y="0"
           id="tspan6">E</tspan></text>
      <text
         class="cls-10"
         transform="rotate(-75.2,312.88408,-29.995997)"
         id="text7"><tspan
           x="0"
           y="0"
           id="tspan7">R</tspan></text>
      <text
         class="cls-10"
         transform="rotate(-67.68,331.66517,-64.615504)"
         id="text8"><tspan
           x="0"
           y="0"
           id="tspan8">M</tspan></text>
      <text
         class="cls-10"
         transform="rotate(-60.22,354.25493,-106.47435)"
         id="text9"><tspan
           x="0"
           y="0"
           id="tspan9">I</tspan></text>
      <text
         class="cls-10"
         transform="rotate(-52.81,382.32839,-158.60939)"
         id="text10"><tspan
           x="0"
           y="0"
           id="tspan10">S</tspan></text>
      <text
         class="cls-10"
         transform="rotate(-45.41,418.72717,-226.31703)"
         id="text11"><tspan
           x="0"
           y="0"
           id="tspan11">T</tspan></text>
      <text
         class="cls-10"
         transform="rotate(-37.98,468.70941,-319.14804)"
         id="text12"><tspan
           x="0"
           y="0"
           id="tspan12" /></text>
      <text
         class="cls-10"
         transform="rotate(-30.51,542.48651,-455.90459)"
         id="text13"><tspan
           x="0"
           y="0"
           id="tspan13">D</tspan></text>
      <text
         class="cls-10"
         transform="rotate(-22.98,664.04021,-680.80403)"
         id="text14"><tspan
           x="0"
           y="0"
           id="tspan14">U</tspan></text>
      <text
         class="cls-10"
         transform="rotate(-15.41,903.87321,-1124.3413)"
         id="text15"><tspan
           x="0"
           y="0"
           id="tspan15">S</tspan></text>
      <text
         class="cls-10"
         transform="rotate(-7.89,1593.7348,-2400.5158)"
         id="text16"><tspan
           x="0"
           y="0"
           id="tspan16">T</tspan></text>
      <text
         class="cls-10"
         transform="rotate(-0.5,22422.411,-40968.861)"
         id="text17"><tspan
           x="0"
           y="0"
           id="tspan17" /></text>
      <text
         class="cls-10"
         transform="rotate(6.92,-1417.7824,3175.2769)"
         id="text18"><tspan
           x="0"
           y="0"
           id="tspan18">S</tspan></text>
      <text
         class="cls-10"
         transform="rotate(14.38,-582.21022,1627.7343)"
         id="text19"><tspan
           x="0"
           y="0"
           id="tspan19">E</tspan></text>
      <text
         class="cls-10"
         transform="rotate(21.84,-316.01751,1134.7678)"
         id="text20"><tspan
           x="0"
           y="0"
           id="tspan20">C</tspan></text>
      <text
         class="cls-10"
         transform="rotate(29.23,-185.23345,892.75354)"
         id="text21"><tspan
           x="0"
           y="0"
           id="tspan21">T</tspan></text>
      <text
         class="cls-10"
         transform="rotate(36.59,-106.68458,747.40251)"
         id="text22"><tspan
           x="0"
           y="0"
           id="tspan22">O</tspan></text>
      <text
         class="cls-10"
         transform="rotate(43.92,-53.911313,649.80373)"
         id="text23"><tspan
           x="0"
           y="0"
           id="tspan23">R</tspan></text>
      <text
         class="cls-10"
         transform="rotate(51.26,-15.54278,578.83326)"
         id="text24"><tspan
           x="0"
           y="0"
           id="tspan24" /></text>
      <text
         class="cls-10"
         transform="rotate(58.65,13.985408,524.21313)"
         id="text25"><tspan
           x="0"
           y="0"
           id="tspan25">V</tspan></text>
      <text
         class="cls-10"
         transform="rotate(66.08,37.577558,480.57397)"
         id="text26"><tspan
           x="0"
           y="0"
           id="tspan26">E</tspan></text>
      <text
         class="cls-10"
         transform="rotate(73.54,56.975756,444.69258)"
         id="text27"><tspan
           x="0"
           y="0"
           id="tspan27">R</tspan></text>
      <text
         class="cls-10"
         transform="rotate(80.95,73.118904,414.80617)"
         id="text28"><tspan
           x="0"
           y="0"
           id="tspan28">M</tspan></text>
      <text
         class="cls-10"
         transform="rotate(88.3,86.831839,389.39552)"
         id="text29"><tspan
           x="0"
           y="0"
           id="tspan29">I</tspan></text>
      <text
         class="cls-10"
         transform="rotate(95.8,99.206337,366.56479)"
         id="text30"><tspan
           x="0"
           y="0"
           id="tspan30">S</tspan></text>
      <text
         class="cls-10"
         transform="rotate(103.35,110.31211,346.13016)"
         id="text31"><tspan
           x="0"
           y="0"
           id="tspan31">T</tspan></text>
      <text
         class="cls-10"
         transform="rotate(110.87,120.25308,327.80373)"
         id="text32"><tspan
           x="0"
           y="0"
           id="tspan32" /></text>
      <text
         class="cls-10"
         transform="rotate(118.35,129.24265,311.17722)"
         id="text33"><tspan
           x="0"
           y="0"
           id="tspan33" /></text>
      <text
         class="cls-10"
         transform="rotate(125.77,137.45043,295.9504)"
         id="text34"><tspan
           x="0"
           y="0"
           id="tspan34">D</tspan></text>
      <text
         class="cls-10"
         transform="rotate(133.17,145.08016,281.75433)"
         id="text35"><tspan
           x="0"
           y="0"
           id="tspan35">U</tspan></text>
      <text
         class="cls-10"
         transform="rotate(140.59,152.33059,268.28574)"
         id="text36"><tspan
           x="0"
           y="0"
           id="tspan36">S</tspan></text>
      <text
         class="cls-10"
         transform="rotate(148.04,159.33049,255.36323)"
         id="text37"><tspan
           x="0"
           y="0"
           id="tspan37">T</tspan></text>
      <text
         class="cls-10"
         transform="rotate(155.56,166.18141,242.78011)"
         id="text38"><tspan
           x="0"
           y="0"
           id="tspan38">S</tspan></text>
      <text
         class="cls-10"
         transform="rotate(163.13,172.93018,230.46625)"
         id="text39"><tspan
           x="0"
           y="0"
           id="tspan39">E</tspan></text>
      <text
         class="cls-10"
         transform="rotate(170.67,179.5009,218.43523)"
         id="text40"><tspan
           x="0"
           y="0"
           id="tspan40">C</tspan></text>
      <text
         class="cls-10"
         transform="rotate(178.07,185.74589,206.76647)"
         id="text41"><tspan
           x="0"
           y="0"
           id="tspan41">T</tspan></text>
      <text
         class="cls-10"
         transform="rotate(-174.52,191.995,195.10827)"
         id="text42"><tspan
           x="0"
           y="0"
           id="tspan42">O</tspan></text>
      <text
         class="cls-10"
         transform="rotate(-167.05,198.3952,183.28559)"
         id="text43"><tspan
           x="0"
           y="0"
           id="tspan43">R</tspan></text>
    </g>
  </g>
  <g
     id="White"
     transform="translate(-194.77922,-80.726988)">
    <path
       class="cls-3"
       d="m 788.42,222.96 v 176.13 c 8.63,3.6 17.71,5.53 27.07,5.53 9.82,0 19.33,-2.11 28.34,-6.06 v -175.6 z"
       id="path43" />
    <g
       id="g5173-2"
       data-name="g5173">
      <polygon
         class="cls-4"
         points="946.9,407.48 946.95,407.52 843.83,362.22 843.83,345.02 "
         id="polygon43" />
      <polygon
         class="cls-4"
         points="760.9,325.78 657.48,280.34 981.62,280.34 843.83,292.31 823.91,294.04 794.17,296.63 788.42,297.13 767.76,298.92 788.42,311.44 788.42,337.87 771.68,330.52 "
         id="polygon44" />
    </g>
    <g
       id="FACES_copy"
       style="display:none">
      <g
         id="HAPPY_copy">
        <ellipse
           class="cls-7"
           cx="804.78003"
           cy="245.06"
           rx="4.29"
           ry="9.1000004"
           id="ellipse44" />
        <path
           class="cls-1"
           d="m 802.66,261.69 c -0.03,0.52 -0.22,4.39 2.81,7.15 2.25,2.05 4.88,2.22 5.63,2.24 h 10.06 c 0.75,-0.02 3.38,-0.2 5.63,-2.24 3.03,-2.76 2.84,-6.63 2.81,-7.15"
           id="path44" />
        <path
           d="m 796.41,234.82 c -0.17,-2.82 2.22,-5.28 4.88,-5.94 1.38,-0.33 2.79,-0.25 4.06,0.12 1.27,0.4 2.4,1.08 3.31,2.05 -0.68,0.13 -1.29,0.14 -1.89,0.17 -4.07,0.2 -6.9,0.68 -10.37,3.6 v 0 z"
           id="path45" />
        <ellipse
           class="cls-7"
           cx="827.47998"
           cy="245.06"
           rx="4.29"
           ry="9.1000004"
           id="ellipse45" />
        <path
           d="m 835.85,234.82 c -3.47,-2.92 -6.29,-3.4 -10.37,-3.6 -0.6,-0.02 -1.21,-0.04 -1.89,-0.17 0.91,-0.97 2.04,-1.65 3.31,-2.05 1.27,-0.37 2.68,-0.46 4.06,-0.12 2.66,0.66 5.05,3.12 4.88,5.94 v 0 z"
           id="path46" />
      </g>
    </g>
    <path
       id="path5108-2"
       data-name="path5108"
       class="cls-6"
       d="M 718.33,196.67 794.22,426.8 757.54,270.03 947.05,407.58 718.34,196.67 Z" />
    <path
       class="cls-5"
       d="m 699.92,310.74 c -4.37,-62.32 42.5,-116.92 104.71,-121.98 64.06,-5.21 120.22,43.07 124.74,107.24 4.39,62.31 -42.46,116.92 -104.66,122.01 -64.08,5.24 -120.29,-43.07 -124.79,-107.26 z"
       id="path47" />
    <text
       class="cls-10"
       transform="rotate(-90.26,508.4873,-197.1773)"
       id="text47"><tspan
         x="0"
         y="0"
         id="tspan47">V</tspan></text>
    <text
       class="cls-10"
       transform="rotate(-82.74,522.29192,-253.61446)"
       id="text48"><tspan
         x="0"
         y="0"
         id="tspan48">E</tspan></text>
    <text
       class="cls-10"
       transform="rotate(-75.2,538.40015,-319.3157)"
       id="text49"><tspan
         x="0"
         y="0"
         id="tspan49">R</tspan></text>
    <text
       class="cls-10"
       transform="rotate(-67.68,557.43653,-397.11952)"
       id="text50"><tspan
         x="0"
         y="0"
         id="tspan50">M</tspan></text>
    <text
       class="cls-10"
       transform="rotate(-60.22,580.33251,-491.0966)"
       id="text51"><tspan
         x="0"
         y="0"
         id="tspan51">I</tspan></text>
    <text
       class="cls-10"
       transform="rotate(-52.81,608.77679,-608.06294)"
       id="text52"><tspan
         x="0"
         y="0"
         id="tspan52">S</tspan></text>
    <text
       class="cls-10"
       transform="rotate(-45.41,645.66806,-759.91093)"
       id="text53"><tspan
         x="0"
         y="0"
         id="tspan53">T</tspan></text>
    <text
       class="cls-10"
       transform="rotate(-37.98,696.32608,-968.19819)"
       id="text54"><tspan
         x="0"
         y="0"
         id="tspan54" /></text>
    <text
       class="cls-10"
       transform="rotate(-30.51,771.09988,-1275.238)"
       id="text55"><tspan
         x="0"
         y="0"
         id="tspan55">D</tspan></text>
    <text
       class="cls-10"
       transform="rotate(-22.98,894.29983,-1780.5635)"
       id="text56"><tspan
         x="0"
         y="0"
         id="tspan56">U</tspan></text>
    <text
       class="cls-10"
       transform="rotate(-15.41,1137.4028,-2777.2735)"
       id="text57"><tspan
         x="0"
         y="0"
         id="tspan57">S</tspan></text>
    <text
       class="cls-10"
       transform="rotate(-7.89,1836.5457,-5644.677)"
       id="text58"><tspan
         x="0"
         y="0"
         id="tspan58">T</tspan></text>
    <text
       class="cls-10"
       transform="rotate(-0.51,22505.539,-90449.709)"
       id="text59"><tspan
         x="0"
         y="0"
         id="tspan59" /></text>
    <text
       class="cls-10"
       transform="rotate(6.92,-1215.7167,6878.3441)"
       id="text60"><tspan
         x="0"
         y="0"
         id="tspan60">S</tspan></text>
    <text
       class="cls-10"
       transform="rotate(14.38,-368.77951,3403.2127)"
       id="text61"><tspan
         x="0"
         y="0"
         id="tspan61">E</tspan></text>
    <text
       class="cls-10"
       transform="rotate(21.84,-98.992482,2296.1517)"
       id="text62"><tspan
         x="0"
         y="0"
         id="tspan62">C</tspan></text>
    <text
       class="cls-10"
       transform="rotate(29.23,33.533596,1752.3671)"
       id="text63"><tspan
         x="0"
         y="0"
         id="tspan63">T</tspan></text>
    <text
       class="cls-10"
       transform="rotate(36.59,113.16818,1425.6647)"
       id="text64"><tspan
         x="0"
         y="0"
         id="tspan64">O</tspan></text>
    <text
       class="cls-10"
       transform="rotate(43.92,166.6548,1206.1907)"
       id="text65"><tspan
         x="0"
         y="0"
         id="tspan65">R</tspan></text>
    <text
       class="cls-10"
       transform="rotate(51.27,205.57981,1046.4663)"
       id="text66"><tspan
         x="0"
         y="0"
         id="tspan66" /></text>
    <text
       class="cls-10"
       transform="rotate(58.65,235.4634,923.94042)"
       id="text67"><tspan
         x="0"
         y="0"
         id="tspan67">V</tspan></text>
    <text
       class="cls-10"
       transform="rotate(66.08,259.37341,825.99497)"
       id="text68"><tspan
         x="0"
         y="0"
         id="tspan68">E</tspan></text>
    <text
       class="cls-10"
       transform="rotate(73.54,279.02604,745.50739)"
       id="text69"><tspan
         x="0"
         y="0"
         id="tspan69">R</tspan></text>
    <text
       class="cls-10"
       transform="rotate(80.95,295.39874,678.40152)"
       id="text70"><tspan
         x="0"
         y="0"
         id="tspan70">M</tspan></text>
    <text
       class="cls-10"
       transform="rotate(88.3,309.29238,621.2566)"
       id="text71"><tspan
         x="0"
         y="0"
         id="tspan71">I</tspan></text>
    <text
       class="cls-10"
       transform="rotate(95.8,321.83766,570.10716)"
       id="text72"><tspan
         x="0"
         y="0"
         id="tspan72">S</tspan></text>
    <text
       class="cls-10"
       transform="rotate(103.35,333.08661,524.35326)"
       id="text73"><tspan
         x="0"
         y="0"
         id="tspan73">T</tspan></text>
    <text
       class="cls-10"
       transform="rotate(110.88,343.17521,483.25921)"
       id="text74"><tspan
         x="0"
         y="0"
         id="tspan74" /></text>
    <text
       class="cls-10"
       transform="rotate(118.35,352.27297,446.04513)"
       id="text75"><tspan
         x="0"
         y="0"
         id="tspan75">D</tspan></text>
    <text
       class="cls-10"
       transform="rotate(125.77,360.58707,411.86871)"
       id="text76"><tspan
         x="0"
         y="0"
         id="tspan76">U</tspan></text>
    <text
       class="cls-10"
       transform="rotate(133.17,368.32786,379.9873)"
       id="text77"><tspan
         x="0"
         y="0"
         id="tspan77">S</tspan></text>
    <text
       class="cls-10"
       transform="rotate(140.59,375.67641,349.75515)"
       id="text78"><tspan
         x="0"
         y="0"
         id="tspan78">T</tspan></text>
    <text
       class="cls-10"
       transform="rotate(148.05,382.77092,320.73089)"
       id="text79"><tspan
         x="0"
         y="0"
         id="tspan79" /></text>
    <text
       class="cls-10"
       transform="rotate(155.56,389.71161,292.56741)"
       id="text80"><tspan
         x="0"
         y="0"
         id="tspan80">S</tspan></text>
    <text
       class="cls-10"
       transform="rotate(163.13,396.54592,264.96535)"
       id="text81"><tspan
         x="0"
         y="0"
         id="tspan81">E</tspan></text>
    <text
       class="cls-10"
       transform="rotate(170.68,403.21649,237.97584)"
       id="text82"><tspan
         x="0"
         y="0"
         id="tspan82">C</tspan></text>
    <text
       class="cls-10"
       transform="rotate(178.07,409.53874,211.85141)"
       id="text83"><tspan
         x="0"
         y="0"
         id="tspan83">T</tspan></text>
    <text
       class="cls-10"
       transform="rotate(-174.52,415.87293,185.71181)"
       id="text84"><tspan
         x="0"
         y="0"
         id="tspan84">O</tspan></text>
    <text
       class="cls-10"
       transform="rotate(-167.05,422.35945,159.19902)"
       id="text85"><tspan
         x="0"
         y="0"
         id="tspan85">R</tspan></text>
  </g>
  <g
     id="Discord"
     transform="translate(-22.966154,-445.44)">
    <rect
       class="cls-2"
       x="855.82001"
       y="446.94"
       width="412.85001"
       height="412.85001"
       id="rect85" />
    <path
       class="cls-9"
       d="M 1034.54,582.18 V 763.6 c 8.63,3.71 17.71,5.7 27.07,5.7 9.82,0 19.33,-2.17 28.34,-6.24 V 582.18 Z"
       id="path85" />
    <g
       id="g5173-3"
       data-name="g5173"
       style="display:inline">
      <polygon
         class="cls-9"
         points="1193.07,766.73 1089.95,721.43 1089.95,704.23 1193.02,766.69 "
         id="polygon85" />
      <polygon
         class="cls-9"
         points="1034.54,670.65 1034.54,697.08 1017.8,689.73 1007.02,684.99 903.6,639.55 1227.74,639.55 1089.95,651.52 1070.03,653.25 1040.29,655.84 1034.54,656.34 1013.88,658.13 "
         id="polygon86" />
    </g>
    <path
       id="path5108-3"
       data-name="path5108"
       class="cls-9"
       d="m 964.44,555.88 75.89,230.13 -36.68,-156.77 189.51,137.55 -228.71,-210.91 z" />
    <path
       class="cls-8"
       d="m 946.04,669.95 c -4.37,-62.32 42.5,-116.92 104.71,-121.98 64.06,-5.21 120.22,43.07 124.74,107.24 4.39,62.31 -42.46,116.92 -104.66,122.01 -64.08,5.24 -120.29,-43.07 -124.79,-107.26 z"
       id="path86" />
    <text
       class="cls-10"
       transform="rotate(-90.26,810.31412,-140.05025)"
       id="text86"><tspan
         x="0"
         y="0"
         id="tspan86">V</tspan></text>
    <text
       class="cls-10"
       transform="rotate(-82.74,849.26397,-213.71266)"
       id="text87"><tspan
         x="0"
         y="0"
         id="tspan87">E</tspan></text>
    <text
       class="cls-10"
       transform="rotate(-75.2,894.652,-299.46841)"
       id="text88"><tspan
         x="0"
         y="0"
         id="tspan88">R</tspan></text>
    <text
       class="cls-10"
       transform="rotate(-67.68,948.35752,-401.02474)"
       id="text89"><tspan
         x="0"
         y="0"
         id="tspan89">M</tspan></text>
    <text
       class="cls-10"
       transform="rotate(-60.22,1013.0778,-523.65276)"
       id="text90"><tspan
         x="0"
         y="0"
         id="tspan90">I</tspan></text>
    <text
       class="cls-10"
       transform="rotate(-52.81,1093.5395,-676.24597)"
       id="text91"><tspan
         x="0"
         y="0"
         id="tspan91">S</tspan></text>
    <text
       class="cls-10"
       transform="rotate(-45.41,1197.9574,-874.35849)"
       id="text92"><tspan
         x="0"
         y="0"
         id="tspan92">T</tspan></text>
    <text
       class="cls-10"
       transform="rotate(-37.98,1341.2678,-1146.1155)"
       id="text93"><tspan
         x="0"
         y="0"
         id="tspan93" /></text>
    <text
       class="cls-10"
       transform="rotate(-30.51,1552.6919,-1546.765)"
       id="text94"><tspan
         x="0"
         y="0"
         id="tspan94">D</tspan></text>
    <text
       class="cls-10"
       transform="rotate(-22.98,1900.9059,-2206.211)"
       id="text95"><tspan
         x="0"
         y="0"
         id="tspan95">U</tspan></text>
    <text
       class="cls-10"
       transform="rotate(-15.41,2587.9525,-3507.0573)"
       id="text96"><tspan
         x="0"
         y="0"
         id="tspan96">S</tspan></text>
    <text
       class="cls-10"
       transform="rotate(-7.89,4563.9715,-7249.0915)"
       id="text97"><tspan
         x="0"
         y="0"
         id="tspan97">T</tspan></text>
    <text
       class="cls-10"
       transform="rotate(-0.5,64231.657,-120278.46)"
       id="text98"><tspan
         x="0"
         y="0"
         id="tspan98" /></text>
    <text
       class="cls-10"
       transform="rotate(6.92,-4063.2347,9092.7841)"
       id="text99"><tspan
         x="0"
         y="0"
         id="tspan99">S</tspan></text>
    <text
       class="cls-10"
       transform="rotate(14.38,-1669.4678,4558.0692)"
       id="text100"><tspan
         x="0"
         y="0"
         id="tspan100">E</tspan></text>
    <text
       class="cls-10"
       transform="rotate(21.84,-906.88787,3113.4436)"
       id="text101"><tspan
         x="0"
         y="0"
         id="tspan101">C</tspan></text>
    <text
       class="cls-10"
       transform="rotate(29.23,-532.20634,2403.8043)"
       id="text102"><tspan
         x="0"
         y="0"
         id="tspan102">T</tspan></text>
    <text
       class="cls-10"
       transform="rotate(36.59,-307.03618,1977.387)"
       id="text103"><tspan
         x="0"
         y="0"
         id="tspan103">O</tspan></text>
    <text
       class="cls-10"
       transform="rotate(43.92,-155.74825,1690.9187)"
       id="text104"><tspan
         x="0"
         y="0"
         id="tspan104">R</tspan></text>
    <text
       class="cls-10"
       transform="rotate(51.26,-45.789687,1482.6979)"
       id="text105"><tspan
         x="0"
         y="0"
         id="tspan105" /></text>
    <text
       class="cls-10"
       transform="rotate(58.65,38.773019,1322.5672)"
       id="text106"><tspan
         x="0"
         y="0"
         id="tspan106">V</tspan></text>
    <text
       class="cls-10"
       transform="rotate(66.08,106.26322,1194.768)"
       id="text107"><tspan
         x="0"
         y="0"
         id="tspan107">E</tspan></text>
    <text
       class="cls-10"
       transform="rotate(73.54,161.71582,1089.7563)"
       id="text108"><tspan
         x="0"
         y="0"
         id="tspan108">R</tspan></text>
    <text
       class="cls-10"
       transform="rotate(80.95,207.9524,1002.1835)"
       id="text109"><tspan
         x="0"
         y="0"
         id="tspan109">M</tspan></text>
    <text
       class="cls-10"
       transform="rotate(88.3,247.31274,927.60237)"
       id="text110"><tspan
         x="0"
         y="0"
         id="tspan110">I</tspan></text>
    <text
       class="cls-10"
       transform="rotate(95.8,282.58209,860.8783)"
       id="text111"><tspan
         x="0"
         y="0"
         id="tspan111">S</tspan></text>
    <text
       class="cls-10"
       transform="rotate(103.35,314.15084,801.21265)"
       id="text112"><tspan
         x="0"
         y="0"
         id="tspan112">T</tspan></text>
    <text
       class="cls-10"
       transform="rotate(110.87,342.45623,747.67849)"
       id="text113"><tspan
         x="0"
         y="0"
         id="tspan113" /></text>
    <text
       class="cls-10"
       transform="rotate(118.35,368.13066,699.06351)"
       id="text114"><tspan
         x="0"
         y="0"
         id="tspan114" /></text>
    <text
       class="cls-10"
       transform="rotate(125.77,391.65421,654.47455)"
       id="text115"><tspan
         x="0"
         y="0"
         id="tspan115">D</tspan></text>
    <text
       class="cls-10"
       transform="rotate(133.17,413.58001,612.87038)"
       id="text116"><tspan
         x="0"
         y="0"
         id="tspan116">U</tspan></text>
    <text
       class="cls-10"
       transform="rotate(140.59,434.37904,573.42838)"
       id="text117"><tspan
         x="0"
         y="0"
         id="tspan117">S</tspan></text>
    <text
       class="cls-10"
       transform="rotate(148.04,454.36586,535.60842)"
       id="text118"><tspan
         x="0"
         y="0"
         id="tspan118">T</tspan></text>
    <text
       class="cls-10"
       transform="rotate(155.56,473.84401,498.81739)"
       id="text119"><tspan
         x="0"
         y="0"
         id="tspan119">S</tspan></text>
    <text
       class="cls-10"
       transform="rotate(163.13,492.94704,462.81538)"
       id="text120"><tspan
         x="0"
         y="0"
         id="tspan120">E</tspan></text>
    <text
       class="cls-10"
       transform="rotate(170.67,511.58282,427.65779)"
       id="text121"><tspan
         x="0"
         y="0"
         id="tspan121">C</tspan></text>
    <text
       class="cls-10"
       transform="rotate(178.07,529.54347,393.52873)"
       id="text122"><tspan
         x="0"
         y="0"
         id="tspan122">T</tspan></text>
    <text
       class="cls-10"
       transform="rotate(-174.52,547.49856,359.42878)"
       id="text123"><tspan
         x="0"
         y="0"
         id="tspan123">O</tspan></text>
    <text
       class="cls-10"
       transform="rotate(-167.05,565.77347,324.84089)"
       id="text124"><tspan
         x="0"
         y="0"
         id="tspan124">R</tspan></text>
  </g>
</svg>
